<?xml version="1.0" standalone="no"?>
<!DOCTYPE svg PUBLIC "-//W3C//DTD SVG 20010904//EN"
 "http://www.w3.org/TR/2001/REC-SVG-20010904/DTD/svg10.dtd">
<svg version="1.0" xmlns="http://www.w3.org/2000/svg"
 width="512.000000pt" height="512.000000pt" viewBox="0 0 512.000000 512.000000"
 preserveAspectRatio="xMidYMid meet">

<g transform="translate(0.000000,512.000000) scale(0.100000,-0.100000)"
fill="#000000" stroke="none">
<path d="M2115 5114 c-325 -34 -568 -103 -835 -236 -243 -120 -427 -253 -615
-443 -182 -185 -305 -357 -423 -595 -169 -338 -236 -631 -236 -1020 0 -295 30
-484 121 -755 45 -134 171 -389 248 -505 528 -788 1456 -1178 2372 -994 67 13
127 24 132 24 5 0 28 -30 52 -68 58 -88 215 -246 309 -309 223 -149 415 -208
685 -207 221 1 365 36 552 133 318 167 536 457 620 823 24 105 24 364 -1 478
-34 158 -95 300 -189 440 -64 95 -222 252 -309 309 -38 24 -68 47 -68 52 0 5
11 65 24 132 68 337 58 685 -28 1022 -229 891 -970 1559 -1886 1700 -101 15
-441 28 -525 19z m386 -204 c828 -84 1531 -645 1790 -1430 82 -251 116 -488
106 -740 -6 -140 -40 -386 -57 -403 -4 -5 -38 0 -76 12 -38 11 -89 23 -114 28
-52 10 -50 2 -26 143 50 288 23 613 -76 899 -219 638 -767 1107 -1428 1222
-896 156 -1773 -362 -2068 -1222 -188 -546 -110 -1144 213 -1628 398 -597
1136 -917 1835 -795 141 24 133 26 143 -26 5 -25 17 -76 28 -114 12 -38 17
-72 12 -76 -17 -17 -263 -51 -403 -57 -479 -20 -964 134 -1352 428 -106 81
-272 242 -355 344 -451 559 -590 1306 -368 1981 47 141 165 383 249 508 329
490 851 823 1431 911 176 26 351 31 516 15z m78 -464 c629 -115 1129 -563
1305 -1169 47 -163 60 -258 60 -457 0 -172 -5 -222 -36 -366 l-10 -50 -102
-12 c-111 -12 -234 -42 -309 -74 -83 -36 -101 -106 -43 -164 41 -41 57 -42
151 -9 357 123 762 30 1029 -238 369 -369 394 -947 59 -1351 -132 -160 -336
-284 -548 -332 -118 -28 -330 -26 -449 4 -172 43 -346 142 -471 267 -271 270
-364 670 -240 1030 33 94 32 110 -9 151 -58 58 -128 40 -164 -43 -32 -75 -62
-198 -74 -309 l-12 -102 -50 -10 c-144 -31 -194 -36 -366 -36 -198 0 -294 13
-456 60 -557 161 -994 609 -1138 1166 -41 157 -51 235 -51 418 0 183 10 261
51 418 170 656 724 1135 1411 1222 96 12 362 4 462 -14z"/>
<path d="M2251 4206 c-44 -24 -50 -51 -51 -208 0 -161 7 -191 51 -214 52 -27
115 -8 137 41 8 16 12 80 12 170 0 90 -4 154 -12 170 -22 48 -88 68 -137 41z"/>
<path d="M1314 3806 c-37 -37 -43 -70 -20 -115 21 -39 139 -147 170 -155 41
-10 94 18 112 59 21 50 10 78 -59 152 -97 103 -145 117 -203 59z"/>
<path d="M3165 3822 c-43 -27 -141 -136 -149 -166 -17 -70 59 -139 128 -116
32 10 145 117 165 157 20 39 13 73 -23 109 -39 39 -75 44 -121 16z"/>
<path d="M2251 3556 c-49 -27 -50 -39 -51 -376 l0 -315 -126 -125 c-69 -69
-132 -137 -140 -152 -48 -92 42 -182 134 -134 32 17 305 292 321 323 16 32 15
703 -1 738 -22 48 -88 68 -137 41z"/>
<path d="M951 2906 c-47 -26 -63 -84 -37 -135 23 -44 53 -51 211 -51 158 0
188 7 211 51 27 52 8 115 -41 137 -37 17 -312 16 -344 -2z"/>
<path d="M3301 2906 c-47 -26 -63 -84 -37 -135 23 -44 53 -51 211 -51 158 0
188 7 211 51 27 52 8 115 -41 137 -37 17 -312 16 -344 -2z"/>
<path d="M1445 2094 c-38 -19 -132 -111 -151 -146 -23 -44 -17 -77 20 -114 37
-37 70 -43 115 -20 39 21 147 139 155 170 10 41 -18 94 -58 111 -44 18 -44 18
-81 -1z"/>
<path d="M3105 2071 c-49 -20 -72 -74 -55 -126 22 -67 110 -87 161 -36 49 50
32 138 -32 160 -37 13 -46 13 -74 2z"/>
<path d="M2251 1856 c-44 -24 -50 -51 -51 -208 0 -161 7 -191 51 -214 52 -27
115 -8 137 41 8 16 12 80 12 170 0 90 -4 154 -12 170 -22 48 -88 68 -137 41z"/>
<path d="M3490 1681 c-84 -27 -157 -100 -191 -190 -25 -68 -18 -114 24 -145
34 -25 91 -25 119 1 11 10 31 41 43 70 34 75 79 92 142 53 40 -24 51 -61 30
-104 -8 -17 -56 -78 -107 -136 -128 -146 -184 -222 -230 -314 -42 -83 -47
-109 -28 -151 23 -50 47 -55 293 -55 l227 0 29 29 c49 49 35 128 -28 160 -12
6 -73 11 -143 11 l-121 0 31 44 c17 24 76 95 131 157 109 125 146 189 155 265
13 110 -53 227 -160 281 -54 28 -167 40 -216 24z"/>
<path d="M4057 1669 c-15 -11 -31 -37 -36 -57 -16 -64 -55 -466 -47 -495 4
-16 20 -36 39 -47 28 -18 51 -20 189 -20 l157 0 3 -146 c3 -146 3 -146 31
-170 50 -43 125 -27 156 33 8 15 11 150 11 433 0 283 -3 418 -11 433 -31 60
-106 76 -156 33 l-28 -24 -3 -196 -3 -196 -90 0 c-65 0 -89 3 -89 13 0 6 7 71
16 142 24 207 23 223 -14 256 -39 35 -88 38 -125 8z"/>
</g>
</svg>
