<?xml version="1.0" standalone="no"?>
<!DOCTYPE svg PUBLIC "-//W3C//DTD SVG 20010904//EN"
 "http://www.w3.org/TR/2001/REC-SVG-20010904/DTD/svg10.dtd">
<svg version="1.0" xmlns="http://www.w3.org/2000/svg"
 width="512.000000pt" height="512.000000pt" viewBox="0 0 512.000000 512.000000"
 preserveAspectRatio="xMidYMid meet">

<g transform="translate(0.000000,512.000000) scale(0.100000,-0.100000)"
fill="#000000" stroke="none">
<path d="M4579 4846 c-26 -7 -64 -26 -85 -43 -22 -18 -570 -563 -1219 -1212
l-1179 -1180 -92 89 c-97 94 -135 118 -229 145 -105 31 -160 20 -416 -82 -244
-97 -347 -152 -473 -254 -255 -206 -402 -487 -462 -889 -25 -162 -26 -514 -2
-622 54 -240 170 -408 343 -493 134 -67 78 -65 1456 -65 1246 0 1246 0 1273
21 20 16 26 29 26 59 0 58 -29 76 -137 85 -219 17 -431 68 -573 138 l-85 42
140 8 c77 4 176 6 221 3 139 -8 307 -60 426 -132 68 -42 154 -133 163 -174 l7
-30 79 0 c88 0 88 1 69 72 -38 135 -212 276 -440 356 -160 56 -233 66 -475 67
-220 0 -220 0 -276 28 -32 15 -76 44 -99 65 -42 37 -43 39 -48 114 -6 98 1
125 101 376 l81 207 1 105 c0 98 -2 110 -32 172 -22 48 -56 93 -117 156 -47
49 -86 92 -86 96 0 4 541 549 1203 1212 661 663 1209 1218 1217 1232 9 17 15
54 15 97 0 58 -5 78 -27 116 -34 58 -88 99 -152 116 -59 15 -58 15 -117 -1z
m114 -187 c9 -12 17 -35 17 -53 0 -28 -117 -148 -1195 -1226 l-1195 -1195 -55
55 -55 55 1199 1199 c1194 1194 1199 1199 1233 1192 18 -3 41 -16 51 -27z
m-2909 -2186 c54 -28 695 -669 717 -718 33 -71 25 -129 -37 -287 -30 -79 -59
-147 -63 -151 -4 -4 -248 234 -540 530 l-532 537 63 24 c215 82 253 93 304 88
29 -2 68 -13 88 -23z m-436 -336 l173 -173 -37 -55 c-118 -176 -192 -419 -214
-711 -15 -199 -23 -178 69 -178 l79 0 7 108 c8 146 31 295 61 400 26 88 98
247 134 292 l19 25 197 -196 196 -196 -13 -94 c-19 -139 -17 -426 4 -519 31
-139 136 -316 240 -405 l41 -35 -106 0 -105 0 -55 57 c-103 109 -234 398 -298
658 -37 149 -39 154 -70 170 -33 17 -71 12 -93 -13 -42 -47 -87 -284 -87 -456
0 -144 12 -222 49 -333 l27 -83 -80 0 -81 0 -59 70 c-189 227 -235 376 -223
719 6 165 29 338 68 502 22 93 17 129 -20 148 -33 18 -76 13 -98 -11 -42 -47
-147 -217 -198 -323 -108 -224 -149 -391 -149 -605 0 -167 14 -237 74 -367 21
-46 35 -83 31 -83 -16 0 -88 59 -125 101 -46 54 -98 162 -120 249 -37 143 -29
475 15 693 55 272 150 460 315 624 66 66 231 191 254 193 3 0 83 -78 178 -173z
m912 -912 l74 -75 1 -142 c1 -127 4 -150 26 -209 61 -159 167 -282 319 -368
l55 -31 -77 0 c-75 0 -78 1 -150 49 -93 62 -212 182 -260 261 -41 68 -62 148
-79 296 -10 96 -4 294 10 294 3 0 40 -34 81 -75z m-1302 -65 c-8 -131 8 -294
37 -393 30 -105 66 -178 140 -286 l54 -81 -53 0 c-52 0 -56 2 -95 48 -56 64
-107 165 -133 259 -27 100 -29 294 -4 398 47 196 62 212 54 55z m797 -560 c21
-41 52 -97 69 -125 18 -27 36 -56 40 -62 5 -10 -8 -13 -54 -13 l-61 0 -24 53
c-46 106 -67 190 -71 292 l-5 100 34 -85 c19 -47 51 -119 72 -160z"/>
<path d="M3351 1973 c-15 -12 -27 -41 -36 -87 -26 -125 -86 -195 -230 -270
-59 -31 -81 -48 -88 -68 -15 -48 9 -78 96 -120 128 -62 208 -161 224 -274 8
-64 35 -94 83 -94 48 0 75 30 83 94 16 113 96 212 224 274 87 42 111 72 96
120 -7 20 -29 37 -88 68 -144 75 -204 145 -230 270 -16 76 -39 104 -85 104
-15 0 -37 -8 -49 -17z m120 -377 l74 -74 -72 -68 -73 -69 -72 69 -73 68 70 73
c39 39 70 73 71 73 0 1 34 -31 75 -72z"/>
<path d="M4071 1413 c-15 -12 -27 -41 -36 -87 -26 -125 -86 -195 -230 -270
-59 -31 -81 -48 -88 -68 -15 -48 9 -78 96 -120 128 -62 208 -161 224 -274 8
-64 35 -94 83 -94 48 0 75 30 83 94 16 113 96 212 224 274 87 42 111 72 96
120 -7 20 -29 37 -88 68 -144 75 -204 145 -230 270 -16 76 -39 104 -85 104
-15 0 -37 -8 -49 -17z m120 -377 l74 -74 -72 -68 -73 -69 -72 69 -73 68 70 73
c39 39 70 73 71 73 0 1 34 -31 75 -72z"/>
</g>
</svg>
